<svg width="187" height="64" viewBox="0 0 187 64" fill="none" xmlns="http://www.w3.org/2000/svg">
<g clip-path="url(#clip0)">
<path d="M121.342 28.2181L121.333 28.2073C122.183 27.9088 122.778 27.4177 123.16 26.9918C123.86 26.2159 124.287 25.1823 124.402 24.0035C124.415 23.8706 124.425 23.7349 124.429 23.5979C124.433 23.5071 124.434 23.4162 124.434 23.324C124.434 23.2385 124.433 23.1544 124.429 23.0717C124.378 21.7153 123.937 20.5378 123.16 19.6778C122.741 19.203 122.077 18.6713 121.081 18.362C120.985 18.3321 120.888 18.3051 120.786 18.2806C120.635 18.2426 120.477 18.21 120.312 18.1829C119.981 18.13 119.622 18.1002 119.231 18.1002H114.559V20.3181H119.231C120.25 20.3181 121.015 20.6165 121.524 21.1713C122.098 21.8102 122.225 22.7053 122.225 23.324C122.225 23.9643 122.098 24.8595 121.524 25.4984C121.364 25.672 121.181 25.8185 120.971 25.9379C120.97 25.9379 120.967 25.9393 120.964 25.942C120.512 26.2104 119.931 26.3517 119.231 26.3517H117.022V26.3298H114.559V33.9207H117.022V28.5694H118.827L122.798 33.9207H125.58L121.342 28.2181Z" fill="#231F20"/>
<path d="M51.3467 19.6578C50.7089 18.9538 49.4983 18.1006 47.4175 18.1006H42.7451V20.3184H47.4175C48.4363 20.3184 49.201 20.6168 49.7104 21.1716C50.2847 21.8105 50.4117 22.7058 50.4117 23.3244C50.4117 23.9646 50.2847 24.86 49.7104 25.4987C49.201 26.0535 48.4363 26.3302 47.4175 26.3302H42.7451V33.921H45.2083V28.5698H47.4175C49.4983 28.5698 50.7089 27.7166 51.3467 26.9922C52.1952 26.0753 52.6208 24.7961 52.6208 23.3244C52.6208 21.854 52.1952 20.5951 51.3467 19.6578Z" fill="#231F20"/>
<path d="M54.6592 33.9212H57.1238V18.1005H54.6592V33.9212Z" fill="#231F20"/>
<path d="M59.374 18.1007V20.3186H63.7059V33.9213H66.1906V20.3186H70.524V18.1007H59.374Z" fill="#231F20"/>
<path d="M83.0117 29.8493C81.9929 30.8721 80.6336 31.4486 79.1892 31.4486C77.7448 31.4486 76.3855 30.8721 75.3667 29.8493C74.3466 28.8253 73.7737 27.4605 73.7737 26.0119C73.7737 24.5618 74.3466 23.1971 75.3667 22.1731C76.3855 21.1285 77.7448 20.5752 79.1892 20.5752C80.4633 20.5752 81.6524 21.001 82.6091 21.7893V18.8686C82.5023 18.8267 82.3753 18.7616 82.2685 18.7194C81.2917 18.2936 80.2513 18.1009 79.1892 18.1009C78.1272 18.1009 77.0868 18.2936 76.1315 18.7194C75.1748 19.1033 74.3466 19.6785 73.625 20.4042C72.9035 21.1285 72.3293 21.9818 71.9253 22.9191C71.5226 23.9011 71.3105 24.9456 71.3105 26.0119C71.3105 27.078 71.5226 28.1225 71.9253 29.0816C72.3293 30.0405 72.9035 30.8721 73.625 31.5978C74.3466 32.3222 75.1748 32.8987 76.1315 33.303C77.0868 33.7086 78.1272 33.9213 79.1892 33.9213C80.2513 33.9213 81.2917 33.7086 82.2685 33.303C82.7145 33.1115 83.14 32.877 83.5427 32.6207V29.2525C83.3724 29.4654 83.2035 29.6567 83.0117 29.8493Z" fill="#231F20"/>
<path d="M94.6722 18.1007V24.8601H88.3851V18.1007H85.9219V33.9213H88.3851V27.0982H94.6722V33.9213H97.1355V18.1007H94.6722Z" fill="#231F20"/>
<path d="M106.53 25.7134V27.9516H109.504V30.8721H109.483C109.207 31.0213 108.91 31.1285 108.613 31.2138C108.613 31.2138 108.591 31.2356 108.569 31.2356C108.548 31.2356 108.506 31.2356 108.484 31.256C108.464 31.256 108.442 31.256 108.421 31.2777H108.357C108.336 31.2993 108.294 31.2993 108.272 31.2993C108.25 31.3198 108.25 31.3198 108.23 31.3198C108.082 31.3414 107.911 31.3848 107.763 31.4053H107.719H107.636C107.614 31.4053 107.593 31.4053 107.593 31.4269H107.273C107.253 31.4486 107.232 31.4486 107.21 31.4486H107.061C105.617 31.4486 104.258 30.8721 103.239 29.8493C102.581 29.1888 102.113 28.3776 101.858 27.4823C101.753 27.0983 101.689 26.694 101.667 26.2886C101.646 26.1814 101.646 26.0959 101.646 26.0119C101.646 25.9047 101.646 25.8192 101.667 25.7134V25.4787C101.689 25.2644 101.731 25.0515 101.773 24.8386C101.773 24.8168 101.773 24.8168 101.794 24.7965C101.921 24.2199 102.135 23.6869 102.452 23.1754C102.452 23.1538 102.474 23.1117 102.496 23.0899C102.537 23.0262 102.581 22.9625 102.623 22.8988C102.623 22.8988 102.644 22.877 102.666 22.8554C102.75 22.7278 102.835 22.6004 102.942 22.4714C102.963 22.4714 102.963 22.4512 102.963 22.4512C103.047 22.344 103.154 22.2585 103.239 22.173C103.514 21.8746 103.833 21.6196 104.174 21.4067C104.216 21.3849 104.258 21.3632 104.279 21.3416C105.108 20.8301 106.063 20.5751 107.061 20.5751H107.21H107.253H107.402C107.422 20.5751 107.444 20.5954 107.465 20.5954H107.656C107.678 20.6172 107.719 20.6172 107.741 20.6172H107.784C107.805 20.6172 107.848 20.6389 107.869 20.6389H107.911C107.997 20.6593 108.102 20.6593 108.187 20.6809C108.208 20.7027 108.23 20.7027 108.23 20.7027C108.272 20.7027 108.294 20.7027 108.315 20.7244H108.379C108.399 20.7446 108.421 20.7446 108.442 20.7446C108.761 20.8301 109.1 20.9577 109.419 21.1068C109.802 21.2994 110.162 21.5124 110.481 21.7892V18.8687H110.46C110.418 18.8469 110.375 18.8267 110.333 18.8049C110.311 18.8049 110.311 18.7832 110.311 18.7832C109.461 18.3993 108.569 18.1863 107.656 18.1226C107.593 18.1008 107.529 18.1008 107.465 18.1008H107.444H107.061C105.999 18.1008 104.959 18.2935 104.004 18.7195C103.047 19.1033 102.22 19.6785 101.497 20.4041C100.776 21.1285 100.201 21.9817 99.7986 22.9191C99.4365 23.7723 99.246 24.6893 99.1826 25.6063V26.0119C99.1826 26.2668 99.2041 26.545 99.2244 26.8C99.2879 27.5894 99.5014 28.3572 99.7986 29.0815C100.201 30.0405 100.776 30.8721 101.497 31.5978C102.006 32.1309 102.601 32.5786 103.239 32.919C103.473 33.0682 103.727 33.197 104.004 33.303C104.109 33.3463 104.216 33.3885 104.323 33.4318C104.406 33.4521 104.471 33.4955 104.556 33.5158H104.577C105.363 33.7939 106.211 33.9214 107.061 33.9214H107.444H107.465C108.464 33.8577 109.398 33.6447 110.289 33.2391L110.311 33.2175C110.354 33.197 110.418 33.1754 110.46 33.1537C110.503 33.1321 110.545 33.1115 110.566 33.0899H110.608C110.63 33.0682 110.63 33.0682 110.652 33.0478C110.693 33.0478 110.735 33.0262 110.757 33.0045C110.779 32.9827 110.8 32.9827 110.82 32.9623C110.864 32.9407 110.884 32.9407 110.927 32.919C110.949 32.8986 110.969 32.8986 110.991 32.8769C111.012 32.8553 111.033 32.8553 111.054 32.8335C111.097 32.8131 111.118 32.7914 111.139 32.7698C111.182 32.7698 111.203 32.7494 111.224 32.7277C111.246 32.7277 111.266 32.7059 111.288 32.6843C111.31 32.6843 111.352 32.6641 111.373 32.6422C111.395 32.6206 111.395 32.6206 111.415 32.6206L111.968 32.2367V25.7134H106.53Z" fill="#231F20"/>
<path d="M138.366 29.8493C137.346 30.8721 135.987 31.4486 134.543 31.4486C133.1 31.4486 131.74 30.8721 130.72 29.8493C129.702 28.8253 129.127 27.4605 129.127 26.0119C129.127 24.5618 129.702 23.1972 130.72 22.1732C131.74 21.1502 133.1 20.5752 134.543 20.5752C135.987 20.5752 137.346 21.1502 138.366 22.1732C139.385 23.1972 139.959 24.5618 139.959 26.0119C139.959 27.4605 139.385 28.8253 138.366 29.8493ZM141.807 22.9191C141.403 21.9818 140.851 21.1502 140.128 20.4043C139.385 19.6785 138.557 19.1251 137.623 18.7195C136.646 18.3139 135.605 18.1009 134.543 18.1009C133.482 18.1009 132.44 18.3139 131.485 18.7195C130.53 19.1251 129.702 19.6785 128.979 20.4043C128.257 21.1502 127.683 21.9818 127.28 22.9191C126.876 23.9012 126.664 24.9457 126.664 26.0119C126.664 27.078 126.876 28.1226 127.28 29.0816C127.683 30.0405 128.257 30.8721 128.979 31.5978C129.702 32.3222 130.53 32.8988 131.485 33.303C132.44 33.7086 133.482 33.9214 134.543 33.9214C135.605 33.9214 136.646 33.7086 137.623 33.303C138.557 32.8988 139.385 32.3222 140.128 31.5978C140.851 30.8721 141.403 30.0405 141.807 29.0816C142.211 28.1226 142.423 27.078 142.423 26.0119C142.423 24.9457 142.211 23.9012 141.807 22.9191Z" fill="#231F20"/>
<path d="M154.103 18.1008V28.5483C154.103 29.4871 153.784 30.2114 153.148 30.7024C152.532 31.1703 151.662 31.4485 150.748 31.4485C149.813 31.4485 148.943 31.1703 148.349 30.7024C147.711 30.2114 147.37 29.4871 147.37 28.5483V18.1008H144.907V28.5483C144.907 29.4233 145.077 30.2332 145.438 30.9576C145.757 31.6181 146.225 32.1946 146.841 32.6639C147.881 33.4737 149.261 33.9214 150.748 33.9214C152.234 33.9214 153.615 33.4737 154.656 32.6639C155.25 32.1946 155.718 31.6181 156.057 30.9576C156.397 30.2332 156.588 29.4233 156.588 28.5483V18.1008H154.103Z" fill="#231F20"/>
<path d="M169.629 18.1002V28.2494L159.731 17.3541V33.9208H162.196V23.7513L172.113 34.645V18.1002H169.629Z" fill="#231F20"/>
<path d="M183.286 29.8906C182.351 30.9147 180.972 31.4479 179.145 31.4479H177.871V20.5743H179.145C180.972 20.5743 182.351 21.0858 183.286 22.1302C184.115 23.0472 184.561 24.3901 184.561 26.0111C184.561 27.609 184.115 28.9736 183.286 29.8906ZM185.113 20.4671C184.434 19.6994 183.584 19.1026 182.585 18.7187C181.566 18.2928 180.419 18.1001 179.145 18.1001H175.406V33.9207H179.145C180.419 33.9207 181.566 33.7077 182.585 33.3021C183.584 32.9183 184.434 32.3213 185.113 31.5536C186.366 30.1686 187.024 28.2493 187.024 26.0111C187.024 23.7715 186.366 21.8535 185.113 20.4671Z" fill="#231F20"/>
<path d="M47.6953 46.2324H44.1152V50H42.9902V41.4688H48.2754V42.3945H44.1152V45.3125H47.6953V46.2324ZM53.3383 49.373C52.9164 49.8691 52.2973 50.1172 51.4809 50.1172C50.8051 50.1172 50.2895 49.9219 49.934 49.5312C49.5824 49.1367 49.4047 48.5547 49.4008 47.7852V43.6602H50.4848V47.7559C50.4848 48.7168 50.8754 49.1973 51.6566 49.1973C52.4848 49.1973 53.0355 48.8887 53.309 48.2715V43.6602H54.393V50H53.3617L53.3383 49.373ZM58.7762 50.1172C57.9168 50.1172 57.2176 49.8359 56.6785 49.2734C56.1395 48.707 55.8699 47.9512 55.8699 47.0059V46.8066C55.8699 46.1777 55.9891 45.6172 56.2273 45.125C56.4695 44.6289 56.8055 44.2422 57.2352 43.9648C57.6687 43.6836 58.1375 43.543 58.6414 43.543C59.4656 43.543 60.1062 43.8145 60.5633 44.3574C61.0203 44.9004 61.2488 45.6777 61.2488 46.6895V47.1406H56.9539C56.9695 47.7656 57.1512 48.2715 57.4988 48.6582C57.8504 49.041 58.2957 49.2324 58.8348 49.2324C59.2176 49.2324 59.5418 49.1543 59.8074 48.998C60.073 48.8418 60.3055 48.6348 60.5047 48.377L61.1668 48.8926C60.6355 49.709 59.8387 50.1172 58.7762 50.1172ZM58.6414 44.4336C58.2039 44.4336 57.8367 44.5938 57.5398 44.9141C57.243 45.2305 57.0594 45.6758 56.9891 46.25H60.1648V46.168C60.1336 45.6172 59.9852 45.1914 59.7195 44.8906C59.4539 44.5859 59.0945 44.4336 58.6414 44.4336ZM63.7863 50H62.7023V41H63.7863V50ZM71.4746 45.752L73.7012 41.4688H74.9785L72.0371 46.8184V50H70.9121V46.8184L67.9707 41.4688H69.2598L71.4746 45.752ZM75.3363 46.7715C75.3363 46.1504 75.4574 45.5918 75.6996 45.0957C75.9457 44.5996 76.2855 44.2168 76.7191 43.9473C77.1566 43.6777 77.6547 43.543 78.2133 43.543C79.0766 43.543 79.7738 43.8418 80.3051 44.4395C80.8402 45.0371 81.1078 45.832 81.1078 46.8242V46.9004C81.1078 47.5176 80.9887 48.0723 80.7504 48.5645C80.516 49.0527 80.1781 49.4336 79.7367 49.707C79.2992 49.9805 78.7953 50.1172 78.225 50.1172C77.3656 50.1172 76.6684 49.8184 76.1332 49.2207C75.602 48.623 75.3363 47.832 75.3363 46.8477V46.7715ZM76.4262 46.9004C76.4262 47.6035 76.5883 48.168 76.9125 48.5938C77.2406 49.0195 77.6781 49.2324 78.225 49.2324C78.7758 49.2324 79.2133 49.0176 79.5375 48.5879C79.8617 48.1543 80.0238 47.5488 80.0238 46.7715C80.0238 46.0762 79.8578 45.5137 79.5258 45.084C79.1977 44.6504 78.7602 44.4336 78.2133 44.4336C77.6781 44.4336 77.2465 44.6465 76.9184 45.0723C76.5902 45.498 76.4262 46.1074 76.4262 46.9004ZM86.4813 49.373C86.0594 49.8691 85.4402 50.1172 84.6238 50.1172C83.948 50.1172 83.4324 49.9219 83.077 49.5312C82.7254 49.1367 82.5477 48.5547 82.5438 47.7852V43.6602H83.6277V47.7559C83.6277 48.7168 84.0184 49.1973 84.7996 49.1973C85.6277 49.1973 86.1785 48.8887 86.452 48.2715V43.6602H87.5359V50H86.5047L86.4813 49.373ZM92.3527 44.6328C92.1887 44.6055 92.0109 44.5918 91.8195 44.5918C91.1086 44.5918 90.6262 44.8945 90.3723 45.5V50H89.2883V43.6602H90.343L90.3605 44.3926C90.716 43.8262 91.2199 43.543 91.8723 43.543C92.0832 43.543 92.2434 43.5703 92.3527 43.625V44.6328ZM96.7012 50V41.4688H99.4902C100.416 41.4688 101.111 41.6602 101.576 42.043C102.045 42.4258 102.279 42.9922 102.279 43.7422C102.279 44.1406 102.166 44.4941 101.939 44.8027C101.713 45.1074 101.404 45.3438 101.014 45.5117C101.475 45.6406 101.838 45.8867 102.104 46.25C102.373 46.6094 102.508 47.0391 102.508 47.5391C102.508 48.3047 102.26 48.9062 101.764 49.3438C101.268 49.7812 100.566 50 99.6602 50H96.7012ZM97.8262 46.0098V49.0801H99.6836C100.207 49.0801 100.619 48.9453 100.92 48.6758C101.225 48.4023 101.377 48.0273 101.377 47.5508C101.377 46.5234 100.818 46.0098 99.7012 46.0098H97.8262ZM97.8262 45.1074H99.5254C100.018 45.1074 100.41 44.9844 100.703 44.7383C101 44.4922 101.148 44.1582 101.148 43.7363C101.148 43.2676 101.012 42.9277 100.738 42.7168C100.465 42.502 100.049 42.3945 99.4902 42.3945H97.8262V45.1074ZM108.022 49.373C107.6 49.8691 106.981 50.1172 106.164 50.1172C105.489 50.1172 104.973 49.9219 104.618 49.5312C104.266 49.1367 104.088 48.5547 104.084 47.7852V43.6602H105.168V47.7559C105.168 48.7168 105.559 49.1973 106.34 49.1973C107.168 49.1973 107.719 48.8887 107.993 48.2715V43.6602H109.077V50H108.045L108.022 49.373ZM114.52 48.3184C114.52 48.0254 114.409 47.7988 114.186 47.6387C113.968 47.4746 113.583 47.334 113.032 47.2168C112.485 47.0996 112.05 46.959 111.725 46.7949C111.405 46.6309 111.167 46.4355 111.011 46.209C110.858 45.9824 110.782 45.7129 110.782 45.4004C110.782 44.8809 111.001 44.4414 111.438 44.082C111.88 43.7227 112.442 43.543 113.126 43.543C113.845 43.543 114.427 43.7285 114.872 44.0996C115.321 44.4707 115.546 44.9453 115.546 45.5234H114.456C114.456 45.2266 114.329 44.9707 114.075 44.7559C113.825 44.541 113.509 44.4336 113.126 44.4336C112.731 44.4336 112.423 44.5195 112.2 44.6914C111.977 44.8633 111.866 45.0879 111.866 45.3652C111.866 45.627 111.97 45.8242 112.177 45.957C112.384 46.0898 112.757 46.2168 113.296 46.3379C113.839 46.459 114.278 46.6035 114.614 46.7715C114.95 46.9395 115.198 47.1426 115.358 47.3809C115.522 47.6152 115.604 47.9023 115.604 48.2422C115.604 48.8086 115.378 49.2637 114.925 49.6074C114.471 49.9473 113.884 50.1172 113.161 50.1172C112.653 50.1172 112.204 50.0273 111.813 49.8477C111.423 49.668 111.116 49.418 110.893 49.0977C110.675 48.7734 110.565 48.4238 110.565 48.0488H111.649C111.669 48.4121 111.813 48.7012 112.083 48.916C112.356 49.127 112.716 49.2324 113.161 49.2324C113.571 49.2324 113.899 49.1504 114.145 48.9863C114.395 48.8184 114.52 48.5957 114.52 48.3184ZM118.294 50H117.21V43.6602H118.294V50ZM117.122 41.9785C117.122 41.8027 117.175 41.6543 117.28 41.5332C117.39 41.4121 117.55 41.3516 117.761 41.3516C117.972 41.3516 118.132 41.4121 118.241 41.5332C118.351 41.6543 118.405 41.8027 118.405 41.9785C118.405 42.1543 118.351 42.3008 118.241 42.418C118.132 42.5352 117.972 42.5938 117.761 42.5938C117.55 42.5938 117.39 42.5352 117.28 42.418C117.175 42.3008 117.122 42.1543 117.122 41.9785ZM121.16 43.6602L121.195 44.457C121.679 43.8477 122.312 43.543 123.093 43.543C124.433 43.543 125.109 44.2988 125.121 45.8105V50H124.037V45.8047C124.033 45.3477 123.927 45.0098 123.72 44.791C123.517 44.5723 123.199 44.4629 122.765 44.4629C122.414 44.4629 122.105 44.5566 121.839 44.7441C121.574 44.9316 121.367 45.1777 121.218 45.4824V50H120.134V43.6602H121.16ZM129.486 50.1172C128.627 50.1172 127.928 49.8359 127.389 49.2734C126.85 48.707 126.58 47.9512 126.58 47.0059V46.8066C126.58 46.1777 126.699 45.6172 126.938 45.125C127.18 44.6289 127.516 44.2422 127.945 43.9648C128.379 43.6836 128.848 43.543 129.352 43.543C130.176 43.543 130.816 43.8145 131.273 44.3574C131.73 44.9004 131.959 45.6777 131.959 46.6895V47.1406H127.664C127.68 47.7656 127.861 48.2715 128.209 48.6582C128.561 49.041 129.006 49.2324 129.545 49.2324C129.928 49.2324 130.252 49.1543 130.518 48.998C130.783 48.8418 131.016 48.6348 131.215 48.377L131.877 48.8926C131.346 49.709 130.549 50.1172 129.486 50.1172ZM129.352 44.4336C128.914 44.4336 128.547 44.5938 128.25 44.9141C127.953 45.2305 127.77 45.6758 127.699 46.25H130.875V46.168C130.844 45.6172 130.695 45.1914 130.43 44.8906C130.164 44.5859 129.805 44.4336 129.352 44.4336ZM137.01 48.3184C137.01 48.0254 136.899 47.7988 136.676 47.6387C136.457 47.4746 136.073 47.334 135.522 47.2168C134.975 47.0996 134.539 46.959 134.215 46.7949C133.895 46.6309 133.657 46.4355 133.5 46.209C133.348 45.9824 133.272 45.7129 133.272 45.4004C133.272 44.8809 133.491 44.4414 133.928 44.082C134.37 43.7227 134.932 43.543 135.616 43.543C136.334 43.543 136.916 43.7285 137.362 44.0996C137.811 44.4707 138.036 44.9453 138.036 45.5234H136.946C136.946 45.2266 136.819 44.9707 136.565 44.7559C136.315 44.541 135.998 44.4336 135.616 44.4336C135.221 44.4336 134.912 44.5195 134.69 44.6914C134.467 44.8633 134.356 45.0879 134.356 45.3652C134.356 45.627 134.459 45.8242 134.666 45.957C134.873 46.0898 135.246 46.2168 135.786 46.3379C136.329 46.459 136.768 46.6035 137.104 46.7715C137.44 46.9395 137.688 47.1426 137.848 47.3809C138.012 47.6152 138.094 47.9023 138.094 48.2422C138.094 48.8086 137.868 49.2637 137.414 49.6074C136.961 49.9473 136.373 50.1172 135.651 50.1172C135.143 50.1172 134.694 50.0273 134.303 49.8477C133.912 49.668 133.606 49.418 133.383 49.0977C133.164 48.7734 133.055 48.4238 133.055 48.0488H134.139C134.159 48.4121 134.303 48.7012 134.573 48.916C134.846 49.127 135.205 49.2324 135.651 49.2324C136.061 49.2324 136.389 49.1504 136.635 48.9863C136.885 48.8184 137.01 48.5957 137.01 48.3184ZM143.298 48.3184C143.298 48.0254 143.186 47.7988 142.964 47.6387C142.745 47.4746 142.36 47.334 141.809 47.2168C141.262 47.0996 140.827 46.959 140.503 46.7949C140.182 46.6309 139.944 46.4355 139.788 46.209C139.636 45.9824 139.559 45.7129 139.559 45.4004C139.559 44.8809 139.778 44.4414 140.216 44.082C140.657 43.7227 141.22 43.543 141.903 43.543C142.622 43.543 143.204 43.7285 143.649 44.0996C144.098 44.4707 144.323 44.9453 144.323 45.5234H143.233C143.233 45.2266 143.106 44.9707 142.852 44.7559C142.602 44.541 142.286 44.4336 141.903 44.4336C141.509 44.4336 141.2 44.5195 140.977 44.6914C140.755 44.8633 140.643 45.0879 140.643 45.3652C140.643 45.627 140.747 45.8242 140.954 45.957C141.161 46.0898 141.534 46.2168 142.073 46.3379C142.616 46.459 143.055 46.6035 143.391 46.7715C143.727 46.9395 143.975 47.1426 144.136 47.3809C144.3 47.6152 144.382 47.9023 144.382 48.2422C144.382 48.8086 144.155 49.2637 143.702 49.6074C143.249 49.9473 142.661 50.1172 141.938 50.1172C141.43 50.1172 140.981 50.0273 140.591 49.8477C140.2 49.668 139.893 49.418 139.671 49.0977C139.452 48.7734 139.343 48.4238 139.343 48.0488H140.427C140.446 48.4121 140.591 48.7012 140.86 48.916C141.134 49.127 141.493 49.2324 141.938 49.2324C142.348 49.2324 142.677 49.1504 142.923 48.9863C143.173 48.8184 143.298 48.5957 143.298 48.3184ZM155.439 48.8809C155.15 49.2949 154.746 49.6055 154.226 49.8125C153.711 50.0156 153.109 50.1172 152.421 50.1172C151.726 50.1172 151.109 49.9551 150.57 49.6309C150.031 49.3027 149.613 48.8379 149.316 48.2363C149.023 47.6348 148.873 46.9375 148.865 46.1445V45.4004C148.865 44.1152 149.164 43.1191 149.761 42.4121C150.363 41.7051 151.207 41.3516 152.293 41.3516C153.183 41.3516 153.9 41.5801 154.443 42.0371C154.986 42.4902 155.318 43.1348 155.439 43.9707H154.314C154.103 42.8418 153.431 42.2773 152.298 42.2773C151.545 42.2773 150.972 42.543 150.582 43.0742C150.195 43.6016 150 44.3672 149.996 45.3711V46.0684C149.996 47.0254 150.214 47.7871 150.652 48.3535C151.089 48.916 151.681 49.1973 152.427 49.1973C152.849 49.1973 153.218 49.1504 153.535 49.0566C153.851 48.9629 154.113 48.8047 154.32 48.582V46.666H152.345V45.752H155.439V48.8809ZM160.314 44.6328C160.15 44.6055 159.973 44.5918 159.781 44.5918C159.07 44.5918 158.588 44.8945 158.334 45.5V50H157.25V43.6602H158.305L158.322 44.3926C158.678 43.8262 159.182 43.543 159.834 43.543C160.045 43.543 160.205 43.5703 160.314 43.625V44.6328ZM161.012 46.7715C161.012 46.1504 161.133 45.5918 161.375 45.0957C161.621 44.5996 161.961 44.2168 162.395 43.9473C162.832 43.6777 163.33 43.543 163.889 43.543C164.752 43.543 165.45 43.8418 165.981 44.4395C166.516 45.0371 166.784 45.832 166.784 46.8242V46.9004C166.784 47.5176 166.664 48.0723 166.426 48.5645C166.192 49.0527 165.854 49.4336 165.412 49.707C164.975 49.9805 164.471 50.1172 163.901 50.1172C163.041 50.1172 162.344 49.8184 161.809 49.2207C161.278 48.623 161.012 47.832 161.012 46.8477V46.7715ZM162.102 46.9004C162.102 47.6035 162.264 48.168 162.588 48.5938C162.916 49.0195 163.354 49.2324 163.901 49.2324C164.452 49.2324 164.889 49.0176 165.213 48.5879C165.537 48.1543 165.7 47.5488 165.7 46.7715C165.7 46.0762 165.534 45.5137 165.202 45.084C164.873 44.6504 164.436 44.4336 163.889 44.4336C163.354 44.4336 162.922 44.6465 162.594 45.0723C162.266 45.498 162.102 46.1074 162.102 46.9004ZM173.856 48.5059L175.075 43.6602H176.159L174.313 50H173.434L171.893 45.1953L170.393 50H169.514L167.675 43.6602H168.753L170.001 48.4062L171.477 43.6602H172.35L173.856 48.5059ZM178.837 42.125V43.6602H180.021V44.498H178.837V48.4297C178.837 48.6836 178.89 48.875 178.995 49.0039C179.101 49.1289 179.28 49.1914 179.534 49.1914C179.659 49.1914 179.831 49.168 180.05 49.1211V50C179.765 50.0781 179.488 50.1172 179.218 50.1172C178.734 50.1172 178.368 49.9707 178.122 49.6777C177.876 49.3848 177.753 48.9688 177.753 48.4297V44.498H176.599V43.6602H177.753V42.125H178.837ZM182.476 44.4277C182.957 43.8379 183.582 43.543 184.351 43.543C185.691 43.543 186.367 44.2988 186.379 45.8105V50H185.295V45.8047C185.291 45.3477 185.185 45.0098 184.978 44.791C184.775 44.5723 184.457 44.4629 184.023 44.4629C183.671 44.4629 183.363 44.5566 183.097 44.7441C182.832 44.9316 182.625 45.1777 182.476 45.4824V50H181.392V41H182.476V44.4277Z" fill="#585454"/>
<path d="M29.0897 30.9641C28.058 32.0872 26.5132 32.6459 24.4526 32.6459H15.0014V43.5133H10.5235C8.46295 43.5133 6.91524 42.911 5.88639 41.7879C4.72417 40.4961 4.46618 38.6862 4.46618 37.4352C4.46618 36.1403 4.72417 34.3277 5.88639 33.0358C6.91524 31.9128 8.46295 31.3541 10.5235 31.3541H19.9747V20.4866H24.4526C26.5132 20.4866 28.058 21.089 29.0897 22.212C30.252 23.5039 30.507 25.3136 30.507 26.5648C30.507 27.8596 30.252 29.6722 29.0897 30.9641ZM32.3996 19.1482C31.1099 17.7254 28.6608 16 24.4526 16H14.9927V26.8238H10.5235C6.31533 26.8238 3.86627 28.5492 2.57656 30.0156C0.86076 31.869 0 34.4585 0 37.4352C0 40.4088 0.86076 42.9547 2.57656 44.8517C3.86627 46.2746 6.31533 48 10.5235 48H19.9834V37.1761H24.4526C28.6608 37.1761 31.1099 35.4508 32.3996 33.9843C34.1154 32.1309 34.9761 29.5442 34.9761 26.5648C34.9761 23.5911 34.1154 21.0452 32.3996 19.1482Z" fill="#ED1C24"/>
</g>
<defs>
<clipPath id="clip0">
<rect width="187" height="64" fill="white"/>
</clipPath>
</defs>
</svg>
